<?xml version="1.0" encoding="UTF-8" standalone="no"?>
<!-- Created with Inkscape (http://www.inkscape.org/) -->

<svg
   xmlns:osb="http://www.openswatchbook.org/uri/2009/osb"
   xmlns:dc="http://purl.org/dc/elements/1.1/"
   xmlns:cc="http://creativecommons.org/ns#"
   xmlns:rdf="http://www.w3.org/1999/02/22-rdf-syntax-ns#"
   xmlns:svg="http://www.w3.org/2000/svg"
   xmlns="http://www.w3.org/2000/svg"
   xmlns:sodipodi="http://sodipodi.sourceforge.net/DTD/sodipodi-0.dtd"
   xmlns:inkscape="http://www.inkscape.org/namespaces/inkscape"
   width="1062.9921"
   height="708.66144"
   id="svg2"
   version="1.1"
   inkscape:version="0.92.1 r15371"
   sodipodi:docname="Caixa6502_B.svg">
  <sodipodi:namedview
     id="base"
     pagecolor="#ffffff"
     bordercolor="#666666"
     borderopacity="1.0"
     inkscape:pageopacity="0.0"
     inkscape:pageshadow="2"
     inkscape:zoom="0.5"
     inkscape:cx="16.37953"
     inkscape:cy="210.3895"
     inkscape:document-units="mm"
     inkscape:current-layer="layer7"
     showgrid="true"
     width="1052.36px"
     units="px"
     inkscape:window-width="1366"
     inkscape:window-height="705"
     inkscape:window-x="-8"
     inkscape:window-y="-8"
     inkscape:window-maximized="1"
     showguides="true"
     inkscape:snap-global="false"
     inkscape:guide-bbox="true">
    <inkscape:grid
       spacingy="35.433071"
       dotted="false"
       spacingx="35.433071"
       units="mm"
       originy="106.29921"
       originx="141.73228"
       type="xygrid"
       id="grid3013"
       empspacing="5"
       visible="true"
       enabled="true"
       snapvisiblegridlinesonly="true" />
    <inkscape:grid
       enabled="false"
       id="grid4231"
       type="xygrid" />
    <sodipodi:guide
       inkscape:locked="false"
       inkscape:color="rgb(0,0,255)"
       inkscape:label=""
       id="guide4454"
       orientation="1,0"
       position="141.73228,558.06249" />
    <sodipodi:guide
       inkscape:locked="false"
       inkscape:color="rgb(0,0,255)"
       inkscape:label=""
       id="guide4456"
       orientation="0,1"
       position="167,106.29921" />
    <sodipodi:guide
       inkscape:locked="false"
       inkscape:color="rgb(0,0,255)"
       inkscape:label=""
       id="guide4484"
       orientation="0,1"
       position="-21.999999,602.3622" />
    <sodipodi:guide
       inkscape:locked="false"
       inkscape:color="rgb(0,0,255)"
       inkscape:label=""
       id="guide4493"
       orientation="1,0"
       position="921.25984,422" />
  </sodipodi:namedview>
  <defs
     id="defs4">
    <linearGradient
       osb:paint="solid"
       id="linearGradient6115">
      <stop
         id="stop6117"
         offset="0"
         style="stop-color:#000000;stop-opacity:1;" />
    </linearGradient>
    <inkscape:path-effect
       tgtlength_rdm="0.3;1"
       tgtlength="100"
       tgtscale="10"
       tgt_places_rdmness="1;1"
       nbtangents="5"
       tremble_frequency="1"
       tremble_size="5;1"
       parallel_offset="5;1"
       ends_tolerance="0.1;1"
       strokeoverlap_rdm="0.3;1"
       strokeoverlap="0.3"
       strokelength_rdm="0.3;1"
       strokelength="100"
       nbiter_approxstrokes="1"
       is_visible="true"
       id="path-effect3350"
       effect="sketch" />
    <linearGradient
       osb:paint="solid"
       id="linearGradient4153">
      <stop
         id="stop4155"
         offset="0"
         style="stop-color:#000000;stop-opacity:1;" />
    </linearGradient>
    <clipPath
       clipPathUnits="userSpaceOnUse"
       id="clipPath3359">
      <path
         d="m 0,1080 1080,0 L 1080,0 0,0 0,1080 Z"
         id="path3361"
         inkscape:connector-curvature="0" />
    </clipPath>
    <style
       type="text/css"
       id="style3400">
    .str0 {stroke:#00AFEF;stroke-width:3}
    .str1 {stroke:#373435;stroke-width:3}
    .fil1 {fill:none}
    .fil0 {fill:none;fill-rule:nonzero}
   </style>
    <linearGradient
       x1="0"
       y1="0"
       x2="1"
       y2="0"
       gradientUnits="userSpaceOnUse"
       gradientTransform="matrix(239.15882,0,0,-230.27346,268.63568,468.39721)"
       spreadMethod="pad"
       id="linearGradient5945">
      <stop
         style="stop-opacity:1;stop-color:#ed2790"
         offset="0"
         id="stop5947" />
      <stop
         style="stop-opacity:1;stop-color:#ed2790"
         offset="0.263733"
         id="stop5949" />
      <stop
         style="stop-opacity:1;stop-color:#ed2790"
         offset="0.571426"
         id="stop5951" />
      <stop
         style="stop-opacity:1;stop-color:#ed2790"
         offset="0.813187"
         id="stop5953" />
      <stop
         style="stop-opacity:1;stop-color:#ed2790"
         offset="1"
         id="stop5955" />
    </linearGradient>
    <linearGradient
       x1="0"
       y1="0"
       x2="1"
       y2="0"
       gradientUnits="userSpaceOnUse"
       gradientTransform="matrix(201.62596,0,0,-201.62596,287.40199,468.39721)"
       spreadMethod="pad"
       id="linearGradient5971">
      <stop
         style="stop-opacity:1;stop-color:#ed2790"
         offset="0"
         id="stop5973" />
      <stop
         style="stop-opacity:1;stop-color:#ed2790"
         offset="0.263733"
         id="stop5975" />
      <stop
         style="stop-opacity:1;stop-color:#ed2790"
         offset="0.571426"
         id="stop5977" />
      <stop
         style="stop-opacity:1;stop-color:#ed2790"
         offset="0.813187"
         id="stop5979" />
      <stop
         style="stop-opacity:1;stop-color:#ed2790"
         offset="1"
         id="stop5981" />
    </linearGradient>
    <linearGradient
       x1="0"
       y1="0"
       x2="1"
       y2="0"
       gradientUnits="userSpaceOnUse"
       gradientTransform="matrix(157.46866,0,0,-157.46866,277.0847,437.56709)"
       spreadMethod="pad"
       id="linearGradient5997">
      <stop
         style="stop-opacity:1;stop-color:#a2356a"
         offset="0"
         id="stop5999" />
      <stop
         style="stop-opacity:1;stop-color:#a2356a"
         offset="0.263733"
         id="stop6001" />
      <stop
         style="stop-opacity:1;stop-color:#a2356a"
         offset="0.571426"
         id="stop6003" />
      <stop
         style="stop-opacity:1;stop-color:#a2356a"
         offset="0.813187"
         id="stop6005" />
      <stop
         style="stop-opacity:1;stop-color:#a2356a"
         offset="1"
         id="stop6007" />
    </linearGradient>
  </defs>
  <metadata
     id="metadata7">
    <rdf:RDF>
      <cc:Work
         rdf:about="">
        <dc:format>image/svg+xml</dc:format>
        <dc:type
           rdf:resource="http://purl.org/dc/dcmitype/StillImage" />
        <dc:title />
      </cc:Work>
    </rdf:RDF>
  </metadata>
  <g
     transform="translate(0,-106.29921)"
     inkscape:groupmode="layer"
     id="layer3"
     inkscape:label="10 [ppm=30,feed=300]"
     style="display:inline">
    <path
       style="fill:none;fill-rule:evenodd;stroke:#000000;stroke-width:0.03558799;stroke-linecap:butt;stroke-linejoin:miter;stroke-miterlimit:4;stroke-dasharray:none;stroke-opacity:1"
       d="m -623.93186,458.19184 0,6.71449 28.31086,0 0,-6.69082"
       id="path6127"
       inkscape:connector-curvature="0" />
  </g>
  <g
     inkscape:label="68 [ppm=25,feed=480]"
     id="layer4"
     inkscape:groupmode="layer" />
  <g
     inkscape:label="68 [ppm=15,feed=480]"
     id="layer7"
     inkscape:groupmode="layer">
    <g
       id="g16"
       transform="matrix(1.0666658,0,0,1.0666658,13.08659,31.00789)">
      <path
         id="polygon14"
         d="m 92.12606,0 v 10.62993 h 21.25986 V 0 h 21.25986 v 10.62993 h 21.25986 V 0 h 21.25986 v 10.62993 h 21.25986 V 0 h 21.25986 v 10.62993 h 21.25986 V 0 h 21.25986 V 10.62993 H 283.4648 V 0 h 21.25986 v 10.62993 h 21.25986 V 0 h 21.25986 v 10.62993 h 21.25986 V 0 h 21.25986 v 10.62993 h 21.25986 V 0 h 21.25986 v 10.62993 h 21.25986 V 0 h 21.25986 V 10.62993 H 496.0634 V 0 h 21.25986 v 10.62993 h 35.4331 V 0 h 35.4331 V 33.661445 H 577.55953 V 67.32289 h 10.62993 v 21.25986 h -10.62993 v 21.25986 h 10.62993 v 21.25986 h -10.62993 v 33.66144 h 10.62993 v 33.66145 h -35.4331 v -10.62993 h -35.4331 v 10.62993 H 496.0634 v -10.62993 h -21.25986 v 10.62993 h -21.25986 v -10.62993 h -21.25986 v 10.62993 H 411.02396 V 187.79543 H 389.7641 v 10.62993 h -21.25986 v -10.62993 h -21.25986 v 10.62993 h -21.25986 v -10.62993 h -21.25986 v 10.62993 H 283.4648 v -10.62993 h -21.25986 v 10.62993 h -21.25986 v -10.62993 h -21.25986 v 10.62993 H 198.42536 V 187.79543 H 177.1655 v 10.62993 h -21.25986 v -10.62993 h -21.25986 v 10.62993 H 113.38592 V 187.79543 H 92.12606 v 10.62993 H 70.8662 V 187.79543 H 35.4331 v 10.62993 H 0 V 164.76391 H 10.62993 V 131.10247 H 0 V 109.84261 H 10.62993 V 88.58275 H 0 V 67.32289 H 10.62993 V 33.661445 H 0 V 0 H 35.4331 V 10.62993 H 70.8662 V 0 Z"
         style="fill:none;stroke:#000000;stroke-width:0.90000075" />
    </g>
    <g
       id="g20"
       transform="matrix(1.0666658,0,0,1.0666658,18.48821,255.00789)">
      <path
         id="polygon18"
         d="m 88.58275,10.62993 h 21.25986 V 0 h 21.25986 v 10.62993 h 21.25986 V 0 h 21.25986 v 10.62993 h 21.25986 V 0 h 21.25986 v 10.62993 h 21.25986 V 0 h 21.25986 v 10.62993 h 21.25986 V 0 h 21.25986 v 10.62993 h 21.25986 V 0 h 21.25986 v 10.62993 h 33.66144 V 0 h 23.03152 v 33.661445 h 10.62993 V 67.32289 h -10.62993 v 21.25986 h 10.62993 v 21.25986 h -10.62993 v 21.25986 h 10.62993 v 33.66144 h -10.62993 v 33.66145 h -23.03152 v -10.62993 h -33.66144 v 10.62993 h -21.25986 v -10.62993 h -21.25986 v 10.62993 h -21.25986 v -10.62993 h -21.25986 v 10.62993 h -21.25986 v -10.62993 h -21.25986 v 10.62993 h -21.25986 v -10.62993 h -21.25986 v 10.62993 h -21.25986 v -10.62993 h -21.25986 v 10.62993 H 109.84261 V 187.79543 H 88.58275 v 10.62993 H 67.32289 V 187.79543 H 33.661445 v 10.62993 H 10.62993 V 164.76391 H 0 V 131.10247 H 10.62993 V 109.84261 H 0 V 88.58275 H 10.62993 V 67.32289 H 0 V 33.661445 H 10.62993 V 0 H 33.661445 V 10.62993 H 67.32289 V 0 h 21.25986 z"
         style="fill:none;stroke:#000000;stroke-width:0.90000075" />
    </g>
    <g
       id="g24"
       transform="matrix(1.0666658,0,0,1.0666658,18.48821,466.66144)">
      <path
         id="polygon22"
         d="m 88.58275,10.62993 h 21.25986 V 0 h 21.25986 v 10.62993 h 21.25986 V 0 h 21.25986 v 10.62993 h 21.25986 V 0 h 21.25986 v 10.62993 h 21.25986 V 0 h 21.25986 v 10.62993 h 21.25986 V 0 h 21.25986 v 10.62993 h 21.25986 V 0 h 21.25986 v 10.62993 h 33.66144 V 0 h 23.03152 v 33.661445 h 10.62993 V 67.32289 h -10.62993 v 21.25986 h 10.62993 v 21.25986 h -10.62993 v 21.25986 h 10.62993 v 33.66144 h -10.62993 v 33.66145 h -23.03152 v -10.62993 h -33.66144 v 10.62993 h -21.25986 v -10.62993 h -21.25986 v 10.62993 h -21.25986 v -10.62993 h -21.25986 v 10.62993 h -21.25986 v -10.62993 h -21.25986 v 10.62993 h -21.25986 v -10.62993 h -21.25986 v 10.62993 h -21.25986 v -10.62993 h -21.25986 v 10.62993 H 109.84261 V 187.79543 H 88.58275 v 10.62993 H 67.32289 V 187.79543 H 33.661445 v 10.62993 H 10.62993 V 164.76391 H 0 V 131.10247 H 10.62993 V 109.84261 H 0 V 88.58275 H 10.62993 V 67.32289 H 0 V 33.661445 H 10.62993 V 0 H 33.661445 V 10.62993 H 67.32289 V 0 h 21.25986 z"
         style="fill:none;stroke:#000000;stroke-width:0.90000075" />
    </g>
    <path
       inkscape:connector-curvature="0"
       id="path3871"
       d="m 98.945312,142.09375 c -13.038013,0 -23.62304,10.58503 -23.623046,23.62305 -5e-6,13.03802 10.585025,23.62109 23.623046,23.62109 13.038028,0 23.621098,-10.58307 23.621098,-23.62109 -1e-5,-13.03802 -10.58308,-23.62305 -23.621098,-23.62305 z m 0,1.36719 c 12.299778,0 22.255858,9.95608 22.255858,22.25586 10e-6,12.29978 -9.95607,22.25586 -22.255858,22.25586 -12.29978,-1e-5 -22.255863,-9.95608 -22.255859,-22.25586 7e-6,-12.29978 9.956086,-22.25586 22.255859,-22.25586 z"
       style="color:#000000;font-style:normal;font-variant:normal;font-weight:normal;font-stretch:normal;font-size:medium;line-height:normal;font-family:sans-serif;font-variant-ligatures:normal;font-variant-position:normal;font-variant-caps:normal;font-variant-numeric:normal;font-variant-alternates:normal;font-feature-settings:normal;text-indent:0;text-align:start;text-decoration:none;text-decoration-line:none;text-decoration-style:solid;text-decoration-color:#000000;letter-spacing:normal;word-spacing:normal;text-transform:none;writing-mode:lr-tb;direction:ltr;text-orientation:mixed;dominant-baseline:auto;baseline-shift:baseline;text-anchor:start;white-space:normal;shape-padding:0;clip-rule:nonzero;display:inline;overflow:visible;visibility:visible;opacity:1;isolation:auto;mix-blend-mode:normal;color-interpolation:sRGB;color-interpolation-filters:linearRGB;solid-color:#000000;solid-opacity:1;vector-effect:none;fill:#000000;fill-opacity:1;fill-rule:nonzero;stroke:none;stroke-width:1.36600006;stroke-linecap:butt;stroke-linejoin:miter;stroke-miterlimit:4;stroke-dasharray:none;stroke-dashoffset:0;stroke-opacity:1;color-rendering:auto;image-rendering:auto;shape-rendering:auto;text-rendering:auto;enable-background:accumulate" />
    <path
       inkscape:connector-curvature="0"
       id="rect4528"
       d="m 169.33594,145.73242 v 0.49805 37.29687 h 94.48633 v -37.79492 z m 0.99414,0.9961 h 92.49804 v 35.80468 h -92.49804 z"
       style="color:#000000;font-style:normal;font-variant:normal;font-weight:normal;font-stretch:normal;font-size:medium;line-height:normal;font-family:sans-serif;font-variant-ligatures:normal;font-variant-position:normal;font-variant-caps:normal;font-variant-numeric:normal;font-variant-alternates:normal;font-feature-settings:normal;text-indent:0;text-align:start;text-decoration:none;text-decoration-line:none;text-decoration-style:solid;text-decoration-color:#000000;letter-spacing:normal;word-spacing:normal;text-transform:none;writing-mode:lr-tb;direction:ltr;text-orientation:mixed;dominant-baseline:auto;baseline-shift:baseline;text-anchor:start;white-space:normal;shape-padding:0;clip-rule:nonzero;display:inline;overflow:visible;visibility:visible;opacity:1;isolation:auto;mix-blend-mode:normal;color-interpolation:sRGB;color-interpolation-filters:linearRGB;solid-color:#000000;solid-opacity:1;vector-effect:none;fill:#000000;fill-opacity:1;fill-rule:nonzero;stroke:none;stroke-width:0.9952665;stroke-linecap:butt;stroke-linejoin:miter;stroke-miterlimit:4;stroke-dasharray:none;stroke-dashoffset:0;stroke-opacity:1;color-rendering:auto;image-rendering:auto;shape-rendering:auto;text-rendering:auto;enable-background:accumulate" />
    <g
       id="g5399">
      <g
         id="g5389" />
      <g
         id="g5391" />
      <g
         id="g5393" />
      <g
         id="g5395" />
      <g
         id="g5397" />
    </g>
  </g>
  <g
     style="display:inline"
     inkscape:label="10 [ppm=30,feed=2500]"
     id="layer9"
     inkscape:groupmode="layer" />
  <g
     transform="translate(0,2.0117187e-6)"
     style="display:inline"
     inkscape:label="8 [feed=3000]"
     id="layer2"
     inkscape:groupmode="layer" />
  <g
     transform="translate(0,2.0117187e-6)"
     style="display:inline"
     inkscape:label="10 [feed=3000,ppm=1]"
     id="layer5"
     inkscape:groupmode="layer" />
  <g
     transform="translate(0,2.0117187e-6)"
     style="display:inline"
     inkscape:label="12 [feed=3000,ppm=5]"
     id="layer6"
     inkscape:groupmode="layer" />
</svg>
