<?xml version="1.0" encoding="UTF-8" standalone="no"?>
<!-- Created with Inkscape (http://www.inkscape.org/) -->

<svg
   xmlns:osb="http://www.openswatchbook.org/uri/2009/osb"
   xmlns:dc="http://purl.org/dc/elements/1.1/"
   xmlns:cc="http://creativecommons.org/ns#"
   xmlns:rdf="http://www.w3.org/1999/02/22-rdf-syntax-ns#"
   xmlns:svg="http://www.w3.org/2000/svg"
   xmlns="http://www.w3.org/2000/svg"
   xmlns:sodipodi="http://sodipodi.sourceforge.net/DTD/sodipodi-0.dtd"
   xmlns:inkscape="http://www.inkscape.org/namespaces/inkscape"
   width="1062.9921"
   height="708.66144"
   id="svg2"
   version="1.1"
   inkscape:version="0.92.1 r15371"
   sodipodi:docname="Caixa6502_A.svg">
  <sodipodi:namedview
     id="base"
     pagecolor="#ffffff"
     bordercolor="#666666"
     borderopacity="1.0"
     inkscape:pageopacity="0.0"
     inkscape:pageshadow="2"
     inkscape:zoom="0.5"
     inkscape:cx="131.37953"
     inkscape:cy="210.3895"
     inkscape:document-units="mm"
     inkscape:current-layer="layer7"
     showgrid="true"
     width="1052.36px"
     units="px"
     inkscape:window-width="1366"
     inkscape:window-height="705"
     inkscape:window-x="-8"
     inkscape:window-y="-8"
     inkscape:window-maximized="1"
     showguides="true"
     inkscape:snap-global="false"
     inkscape:guide-bbox="true">
    <inkscape:grid
       snapvisiblegridlinesonly="true"
       enabled="true"
       visible="true"
       empspacing="5"
       id="grid3013"
       type="xygrid"
       originx="141.73228"
       originy="106.29921"
       units="mm"
       spacingx="35.433071"
       dotted="false"
       spacingy="35.433071" />
    <inkscape:grid
       type="xygrid"
       id="grid4231"
       enabled="false" />
    <sodipodi:guide
       position="141.73228,558.06249"
       orientation="1,0"
       id="guide4454"
       inkscape:label=""
       inkscape:color="rgb(0,0,255)"
       inkscape:locked="false" />
    <sodipodi:guide
       position="167,106.29921"
       orientation="0,1"
       id="guide4456"
       inkscape:label=""
       inkscape:color="rgb(0,0,255)"
       inkscape:locked="false" />
    <sodipodi:guide
       position="-21.999999,602.3622"
       orientation="0,1"
       id="guide4484"
       inkscape:label=""
       inkscape:color="rgb(0,0,255)"
       inkscape:locked="false" />
    <sodipodi:guide
       position="921.25984,422"
       orientation="1,0"
       id="guide4493"
       inkscape:label=""
       inkscape:color="rgb(0,0,255)"
       inkscape:locked="false" />
  </sodipodi:namedview>
  <defs
     id="defs4">
    <linearGradient
       id="linearGradient6115"
       osb:paint="solid">
      <stop
         style="stop-color:#000000;stop-opacity:1;"
         offset="0"
         id="stop6117" />
    </linearGradient>
    <inkscape:path-effect
       effect="sketch"
       id="path-effect3350"
       is_visible="true"
       nbiter_approxstrokes="1"
       strokelength="100"
       strokelength_rdm="0.3;1"
       strokeoverlap="0.3"
       strokeoverlap_rdm="0.3;1"
       ends_tolerance="0.1;1"
       parallel_offset="5;1"
       tremble_size="5;1"
       tremble_frequency="1"
       nbtangents="5"
       tgt_places_rdmness="1;1"
       tgtscale="10"
       tgtlength="100"
       tgtlength_rdm="0.3;1" />
    <linearGradient
       id="linearGradient4153"
       osb:paint="solid">
      <stop
         style="stop-color:#000000;stop-opacity:1;"
         offset="0"
         id="stop4155" />
    </linearGradient>
    <clipPath
       id="clipPath3359"
       clipPathUnits="userSpaceOnUse">
      <path
         inkscape:connector-curvature="0"
         id="path3361"
         d="m 0,1080 1080,0 L 1080,0 0,0 0,1080 Z" />
    </clipPath>
    <style
       id="style3400"
       type="text/css">
    .str0 {stroke:#00AFEF;stroke-width:3}
    .str1 {stroke:#373435;stroke-width:3}
    .fil1 {fill:none}
    .fil0 {fill:none;fill-rule:nonzero}
   </style>
    <linearGradient
       id="linearGradient5945"
       spreadMethod="pad"
       gradientTransform="matrix(239.15882,0,0,-230.27346,268.63568,468.39721)"
       gradientUnits="userSpaceOnUse"
       y2="0"
       x2="1"
       y1="0"
       x1="0">
      <stop
         id="stop5947"
         offset="0"
         style="stop-opacity:1;stop-color:#ed2790" />
      <stop
         id="stop5949"
         offset="0.263733"
         style="stop-opacity:1;stop-color:#ed2790" />
      <stop
         id="stop5951"
         offset="0.571426"
         style="stop-opacity:1;stop-color:#ed2790" />
      <stop
         id="stop5953"
         offset="0.813187"
         style="stop-opacity:1;stop-color:#ed2790" />
      <stop
         id="stop5955"
         offset="1"
         style="stop-opacity:1;stop-color:#ed2790" />
    </linearGradient>
    <linearGradient
       id="linearGradient5971"
       spreadMethod="pad"
       gradientTransform="matrix(201.62596,0,0,-201.62596,287.40199,468.39721)"
       gradientUnits="userSpaceOnUse"
       y2="0"
       x2="1"
       y1="0"
       x1="0">
      <stop
         id="stop5973"
         offset="0"
         style="stop-opacity:1;stop-color:#ed2790" />
      <stop
         id="stop5975"
         offset="0.263733"
         style="stop-opacity:1;stop-color:#ed2790" />
      <stop
         id="stop5977"
         offset="0.571426"
         style="stop-opacity:1;stop-color:#ed2790" />
      <stop
         id="stop5979"
         offset="0.813187"
         style="stop-opacity:1;stop-color:#ed2790" />
      <stop
         id="stop5981"
         offset="1"
         style="stop-opacity:1;stop-color:#ed2790" />
    </linearGradient>
    <linearGradient
       id="linearGradient5997"
       spreadMethod="pad"
       gradientTransform="matrix(157.46866,0,0,-157.46866,277.0847,437.56709)"
       gradientUnits="userSpaceOnUse"
       y2="0"
       x2="1"
       y1="0"
       x1="0">
      <stop
         id="stop5999"
         offset="0"
         style="stop-opacity:1;stop-color:#a2356a" />
      <stop
         id="stop6001"
         offset="0.263733"
         style="stop-opacity:1;stop-color:#a2356a" />
      <stop
         id="stop6003"
         offset="0.571426"
         style="stop-opacity:1;stop-color:#a2356a" />
      <stop
         id="stop6005"
         offset="0.813187"
         style="stop-opacity:1;stop-color:#a2356a" />
      <stop
         id="stop6007"
         offset="1"
         style="stop-opacity:1;stop-color:#a2356a" />
    </linearGradient>
  </defs>
  <metadata
     id="metadata7">
    <rdf:RDF>
      <cc:Work
         rdf:about="">
        <dc:format>image/svg+xml</dc:format>
        <dc:type
           rdf:resource="http://purl.org/dc/dcmitype/StillImage" />
        <dc:title></dc:title>
      </cc:Work>
    </rdf:RDF>
  </metadata>
  <g
     style="display:inline"
     inkscape:label="10 [ppm=30,feed=300]"
     id="layer3"
     inkscape:groupmode="layer"
     transform="translate(0,-106.29921)">
    <path
       inkscape:connector-curvature="0"
       id="path6127"
       d="m -623.93186,458.19184 0,6.71449 28.31086,0 0,-6.69082"
       style="fill:none;fill-rule:evenodd;stroke:#000000;stroke-width:0.03558799;stroke-linecap:butt;stroke-linejoin:miter;stroke-miterlimit:4;stroke-dasharray:none;stroke-opacity:1" />
  </g>
  <g
     inkscape:groupmode="layer"
     id="layer4"
     inkscape:label="68 [ppm=25,feed=480]" />
  <g
     inkscape:groupmode="layer"
     id="layer7"
     inkscape:label="68 [ppm=25,feed=480]">
    <path
       id="polygon10"
       d="m 92.12606,0 v 10.62993 h 21.25986 V 0 h 21.25986 v 10.62993 h 21.25986 V 0 h 21.25986 v 10.62993 h 21.25986 V 0 h 21.25986 v 10.62993 h 21.25986 V 0 h 21.25986 V 10.62993 H 283.4648 V 0 h 21.25986 v 10.62993 h 21.25986 V 0 h 21.25986 v 10.62993 h 21.25986 V 0 h 21.25986 v 10.62993 h 21.25986 V 0 h 21.25986 v 10.62993 h 21.25986 V 0 h 21.25986 V 10.62993 H 496.0634 V 0 h 21.25986 v 10.62993 h 35.4331 V 0 h 35.4331 V 33.661445 H 577.55953 V 67.32289 h 10.62993 v 21.25986 h -10.62993 v 21.25986 h 10.62993 v 21.25986 h -10.62993 v 33.66144 h 10.62993 v 33.66145 h -35.4331 v -10.62993 h -35.4331 v 10.62993 H 496.0634 v -10.62993 h -21.25986 v 10.62993 h -21.25986 v -10.62993 h -21.25986 v 10.62993 H 411.02396 V 187.79543 H 389.7641 v 10.62993 h -21.25986 v -10.62993 h -21.25986 v 10.62993 h -21.25986 v -10.62993 h -21.25986 v 10.62993 H 283.4648 v -10.62993 h -21.25986 v 10.62993 h -21.25986 v -10.62993 h -21.25986 v 10.62993 H 198.42536 V 187.79543 H 177.1655 v 10.62993 h -21.25986 v -10.62993 h -21.25986 v 10.62993 H 113.38592 V 187.79543 H 92.12606 v 10.62993 H 70.8662 V 187.79543 H 35.4331 v 10.62993 H 0 V 164.76391 H 10.62993 V 131.10247 H 0 V 109.84261 H 10.62993 V 88.58275 H 0 V 67.32289 H 10.62993 V 33.661445 H 0 V 0 H 35.4331 V 10.62993 H 70.8662 V 0 Z"
       style="fill:none;stroke:#000000;stroke-width:0.90000075"
       transform="matrix(1.0666658,0,0,1.0666658,34.29921,35.62206)" />
    <g
       transform="matrix(1.0666658,0,0,1.0666658,34.29921,251.27561)"
       id="g28">
      <path
         id="polygon26"
         d="M 92.12606,10.62993 V 0 h 21.25986 v 10.62993 h 21.25986 V 0 h 21.25986 V 10.62993 H 177.1655 V 0 h 21.25986 v 10.62993 h 21.25986 V 0 h 21.25986 v 10.62993 h 21.25986 V 0 h 21.25986 v 10.62993 h 21.25986 V 0 h 21.25986 v 10.62993 h 21.25986 V 0 h 21.25986 V 10.62993 H 389.7641 V 0 h 21.25986 v 10.62993 h 21.25986 V 0 h 21.25986 v 10.62993 h 21.25986 V 0 h 21.25986 v 10.62993 h 21.25986 V 0 h 35.4331 v 10.62993 h 24.80317 v 23.031515 h 10.62993 V 67.32289 h -10.62993 v 21.25986 h 10.62993 v 21.25986 h -10.62993 v 21.25986 h 10.62993 v 21.25986 h -10.62993 v 21.25986 h 10.62993 v 21.25986 h -10.62993 v 21.25986 h 10.62993 v 21.25986 h -10.62993 v 21.25986 h 10.62993 v 21.25986 h -10.62993 v 21.25986 h 10.62993 v 21.25986 h -10.62993 v 21.25986 h 10.62993 v 33.66144 h -10.62993 v 23.03152 h -24.80317 v 10.62993 h -35.4331 V 400.39403 H 496.0634 v 10.62993 h -21.25986 v -10.62993 h -21.25986 v 10.62993 h -21.25986 v -10.62993 h -21.25986 v 10.62993 H 389.7641 v -10.62993 h -21.25986 v 10.62993 h -21.25986 v -10.62993 h -21.25986 v 10.62993 H 304.72466 V 400.39403 H 283.4648 v 10.62993 h -21.25986 v -10.62993 h -21.25986 v 10.62993 h -21.25986 v -10.62993 h -21.25986 v 10.62993 H 177.1655 v -10.62993 h -21.25986 v 10.62993 h -21.25986 v -10.62993 h -21.25986 v 10.62993 H 92.12606 V 400.39403 H 70.8662 v 10.62993 H 35.4331 V 400.39403 H 10.62993 V 377.36251 H 0 V 343.70107 H 10.62993 V 322.44121 H 0 V 301.18135 H 10.62993 V 279.92149 H 0 V 258.66163 H 10.62993 V 237.40177 H 0 V 216.14191 H 10.62993 V 194.88205 H 0 V 173.62219 H 10.62993 V 152.36233 H 0 V 131.10247 H 10.62993 V 109.84261 H 0 V 88.58275 H 10.62993 V 67.32289 H 0 V 33.661445 H 10.62993 V 10.62993 H 35.4331 V 0 h 35.4331 v 10.62993 z"
         style="fill:none;stroke:#000000;stroke-width:0.90000075" />
    </g>
    <g
       id="g3882" />
    <g
       id="g3984">
      <g
         id="g3980" />
      <g
         id="g3982" />
    </g>
  </g>
  <g
     inkscape:groupmode="layer"
     id="layer9"
     inkscape:label="10 [ppm=30,feed=2500]"
     style="display:inline" />
  <g
     inkscape:groupmode="layer"
     id="layer2"
     inkscape:label="8 [feed=3000]"
     style="display:inline"
     transform="translate(0,2.0117187e-6)" />
  <g
     inkscape:groupmode="layer"
     id="layer5"
     inkscape:label="10 [feed=3000,ppm=1]"
     style="display:inline"
     transform="translate(0,2.0117187e-6)" />
  <g
     inkscape:groupmode="layer"
     id="layer6"
     inkscape:label="12 [feed=3000,ppm=5]"
     style="display:inline"
     transform="translate(0,2.0117187e-6)" />
</svg>
